<svg width="150" height="90" viewBox="0 0 150 90" fill="none" xmlns="http://www.w3.org/2000/svg">
<g clip-path="url(#clip0_425_2047)">
<path d="M0 90V75.479H10.4201C10.9763 75.479 11.5053 75.5871 12.0072 75.8035C12.5093 76.0194 12.9469 76.313 13.3198 76.6841C13.6931 77.0555 13.995 77.4942 14.2259 78.0006C14.4565 78.507 14.5782 79.0505 14.5919 79.6309V85.8482C14.5919 86.4019 14.4853 86.9285 14.2717 87.428C14.0578 87.9277 13.7626 88.3667 13.3863 88.7442C13.0097 89.1228 12.5672 89.4263 12.0581 89.6555C11.5495 89.8853 11.0034 90 10.4201 90H0ZM2.08613 87.9241H10.4201C11.0034 87.9241 11.4968 87.7236 11.9006 87.3214C12.3042 86.9201 12.5062 86.4291 12.5062 85.8482V79.6309C12.5062 79.0505 12.3042 78.5592 11.9006 78.1576C11.4968 77.756 11.0034 77.5552 10.4201 77.5552H2.08613V87.9241Z" fill="#02931C"/>
<path d="M16.4541 90V75.479H18.5402L28.9603 86.4759V75.479H31.046V90H28.9603L18.5402 78.841V90H16.4541Z" fill="#02931C"/>
<path d="M35.2082 75.479H33.1221V90H35.2082V75.479Z" fill="#02931C"/>
<path d="M37.2842 90V75.479H47.704C48.2605 75.479 48.7894 75.5871 49.2913 75.8035C49.7935 76.0194 50.2308 76.313 50.604 76.6841C50.977 77.0555 51.2792 77.4942 51.51 78.0006C51.7404 78.507 51.8621 79.0505 51.8758 79.6309V81.7071C51.8758 82.2606 51.7692 82.7851 51.5556 83.2812C51.342 83.7776 51.0465 84.2166 50.6704 84.5983C50.2939 84.9794 49.8512 85.2829 49.3421 85.5091C48.8335 85.7355 48.2875 85.8479 47.704 85.8479H39.3703V90H37.2842ZM39.3706 83.7827H47.7043C48.2878 83.7827 48.7809 83.5819 49.185 83.1801C49.5886 82.7787 49.7904 82.2872 49.7904 81.7071V79.6309C49.7904 79.0505 49.5886 78.559 49.185 78.1576C48.7809 77.756 48.2878 77.5552 47.7043 77.5552H39.3706V83.7827Z" fill="#02931C"/>
<path d="M53.5352 90V75.479H63.9553C64.4978 75.479 65.0237 75.5871 65.5323 75.8035C66.0414 76.0194 66.4854 76.313 66.8653 76.6841C67.2452 77.0555 67.5505 77.4942 67.7813 78.0006C68.0117 78.507 68.127 79.0505 68.127 79.6309V81.7071C68.127 82.1525 68.0573 82.5776 67.9183 82.9828C67.7793 83.3878 67.5808 83.7643 67.3235 84.1116C67.0656 84.4597 66.76 84.7668 66.4074 85.0334C66.0545 85.3001 65.6612 85.5042 65.2273 85.6456L68.127 88.5316V90H66.6514L62.4797 85.8479H55.6213V90H53.5352ZM55.6213 83.7827H63.9553C64.5385 83.7827 65.0319 83.5819 65.4358 83.1801C65.8393 82.7787 66.0414 82.2872 66.0414 81.7071V79.6309C66.0414 79.0505 65.8393 78.559 65.4358 78.1576C65.0319 77.756 64.5385 77.5552 63.9553 77.5552H55.6213V83.7827Z" fill="#02931C"/>
<path d="M69.7852 85.8479V79.6309C69.7852 79.0635 69.8953 78.5287 70.1156 78.0262C70.3365 77.5229 70.6348 77.0842 71.0116 76.7092C71.3877 76.335 71.8306 76.0358 72.3392 75.8133C72.8478 75.5904 73.3876 75.479 73.9574 75.479H80.2053C80.7615 75.479 81.2889 75.5904 81.7872 75.8133C82.2862 76.0358 82.7269 76.335 83.1102 76.7092C83.4931 77.0842 83.8005 77.5229 84.0313 78.0262C84.262 78.5287 84.377 79.0635 84.377 79.6309V85.8479C84.377 86.4152 84.2653 86.9523 84.0414 87.4582C83.8177 87.9646 83.5171 88.4033 83.141 88.7747C82.7645 89.1458 82.3233 89.4427 81.8178 89.6655C81.3128 89.8881 80.7754 90 80.2053 90H73.9574C73.3737 90 72.8275 89.8932 72.3189 89.6806C71.81 89.4681 71.3673 89.1745 70.9913 88.7998C70.6145 88.4254 70.3192 87.9846 70.1056 87.4784C69.8917 86.9726 69.7852 86.4291 69.7852 85.8479ZM71.8713 85.8479C71.8713 86.4291 72.0728 86.9201 72.4769 87.3214C72.8803 87.7233 73.3737 87.9239 73.9574 87.9239H80.2053C80.7885 87.9239 81.2819 87.7233 81.6858 87.3214C82.0894 86.9201 82.2911 86.4291 82.2911 85.8479V79.6309C82.2911 79.0505 82.0894 78.559 81.6858 78.1576C81.2819 77.7557 80.7885 77.5549 80.2053 77.5549H73.9574C73.3737 77.5549 72.8803 77.7557 72.4769 78.1576C72.0728 78.559 71.8713 79.0505 71.8713 79.6309V85.8479Z" fill="#02931C"/>
<path d="M86.2397 90V79.6309C86.2397 79.0774 86.3481 78.5526 86.5648 78.0567C86.7823 77.5601 87.077 77.1216 87.4508 76.7397C87.8232 76.3591 88.2644 76.0532 88.7735 75.8235C89.2821 75.5943 89.8283 75.479 90.4115 75.479H96.6596C97.2161 75.479 97.745 75.5871 98.2469 75.8035C98.7488 76.0194 99.1864 76.313 99.5596 76.6841C99.9325 77.0555 100.235 77.4942 100.465 78.0006C100.696 78.507 100.818 79.0505 100.831 79.6309V90H98.7457V85.8479H88.3259V90H86.2397ZM88.3259 83.7827H98.7457V79.6309C98.7457 79.0505 98.5437 78.559 98.1404 78.1576C97.7363 77.756 97.2431 77.5552 96.6596 77.5552H90.4115C89.8283 77.5552 89.3348 77.756 88.9315 78.1576C88.5272 78.559 88.3259 79.0505 88.3259 79.6309V83.7827Z" fill="#02931C"/>
<path d="M102.704 85.8479V79.6309C102.704 79.0771 102.811 78.5526 103.024 78.0564C103.238 77.5601 103.533 77.1216 103.91 76.7394C104.286 76.3588 104.729 76.0532 105.238 75.8232C105.746 75.5943 106.293 75.479 106.876 75.479H113.124C113.68 75.479 114.208 75.5868 114.706 75.8033C115.205 76.0194 115.643 76.3127 116.019 76.6841C116.395 77.0555 116.697 77.4942 116.925 78.0003C117.152 78.507 117.275 79.0505 117.296 79.6309H115.21C115.21 79.0505 115.008 78.559 114.605 78.1576C114.201 77.7557 113.707 77.5549 113.124 77.5549H106.876C106.293 77.5549 105.799 77.7557 105.396 78.1576C104.992 78.559 104.79 79.0505 104.79 79.6309V85.8479C104.79 86.4291 104.992 86.9201 105.396 87.3214C105.799 87.7233 106.293 87.9239 106.876 87.9239H113.124C113.707 87.9239 114.201 87.7233 114.605 87.3214C115.008 86.9201 115.21 86.4291 115.21 85.8479V83.7827H108.952V81.7068H117.296V85.8479C117.296 86.4017 117.187 86.9285 116.971 87.428C116.753 87.9274 116.456 88.3664 116.08 88.7442C115.704 89.1225 115.263 89.4263 114.757 89.6553C114.252 89.8853 113.707 90 113.124 90H106.876C106.32 90 105.787 89.8932 105.278 89.6806C104.77 89.4681 104.324 89.1745 103.941 88.7998C103.557 88.4254 103.255 87.9846 103.034 87.4784C102.814 86.9726 102.704 86.4291 102.704 85.8479Z" fill="#02931C"/>
<path d="M119.158 90V75.479H129.578C130.12 75.479 130.646 75.5871 131.155 75.8035C131.664 76.0194 132.108 76.313 132.488 76.6841C132.868 77.0555 133.173 77.4942 133.404 78.0006C133.634 78.507 133.75 79.0505 133.75 79.6309V81.7071C133.75 82.1525 133.68 82.5776 133.541 82.9828C133.402 83.3878 133.203 83.7643 132.946 84.1116C132.688 84.4597 132.383 84.7668 132.03 85.0334C131.677 85.3001 131.284 85.5042 130.85 85.6456L133.75 88.5316V90H132.274L128.102 85.8479H121.244V90H119.158ZM121.244 83.7827H129.578C130.161 83.7827 130.654 83.5819 131.058 83.1801C131.462 82.7787 131.664 82.2872 131.664 81.7071V79.6309C131.664 79.0505 131.462 78.559 131.058 78.1576C130.654 77.756 130.161 77.5552 129.578 77.5552H121.244V83.7827Z" fill="#02931C"/>
<path d="M135.408 85.8479V79.6309C135.408 79.0635 135.518 78.5287 135.738 78.0262C135.959 77.5229 136.258 77.0842 136.634 76.7092C137.01 76.335 137.454 76.0358 137.962 75.8133C138.471 75.5904 139.01 75.479 139.58 75.479H145.828C146.384 75.479 146.912 75.5904 147.41 75.8133C147.909 76.0358 148.35 76.335 148.733 76.7092C149.116 77.0842 149.423 77.5229 149.654 78.0262C149.885 78.5287 150 79.0635 150 79.6309V85.8479C150 86.4152 149.888 86.9523 149.664 87.4582C149.441 87.9646 149.14 88.4033 148.764 88.7747C148.387 89.1458 147.946 89.4427 147.441 89.6655C146.936 89.8881 146.398 90 145.828 90H139.58C138.997 90 138.451 89.8932 137.942 89.6806C137.433 89.4681 136.99 89.1745 136.614 88.7998C136.238 88.4254 135.942 87.9846 135.728 87.4784C135.515 86.9726 135.408 86.4291 135.408 85.8479ZM137.494 85.8479C137.494 86.4291 137.696 86.9201 138.1 87.3214C138.503 87.7233 138.997 87.9239 139.58 87.9239H145.828C146.411 87.9239 146.905 87.7233 147.309 87.3214C147.712 86.9201 147.914 86.4291 147.914 85.8479V79.6309C147.914 79.0505 147.712 78.559 147.309 78.1576C146.905 77.7557 146.411 77.5549 145.828 77.5549H139.58C138.997 77.5549 138.503 77.7557 138.1 78.1576C137.696 78.559 137.494 79.0505 137.494 79.6309V85.8479Z" fill="#02931C"/>
<path d="M18.1504 68.3469C18.1504 68.3469 70.0682 50.394 114.97 66.1529C102.542 65.7539 47.2165 58.5727 18.1504 68.3469Z" fill="#02931C"/>
<path d="M71.7432 61.1029C71.7432 61.1029 82.5949 56.4127 85.8833 53.3586C89.1717 50.3042 93.5563 45.0684 94.6523 39.0693L95.2005 39.6146C95.2005 39.6146 92.4604 47.7954 90.4872 50.3042C88.5141 52.813 79.4162 60.7759 77.3334 61.4303C75.2506 62.0847 71.7432 61.1029 71.7432 61.1029Z" fill="#02931C"/>
<path d="M85.8831 53.3583C85.8831 53.3583 82.1564 50.4131 80.7313 48.0134C79.3064 45.6137 78.1007 43.2141 78.5391 39.8326L78.4294 37.8691C78.4294 37.8691 77.4429 43.5411 78.2101 45.0684C78.9774 46.5955 83.8004 55.3216 83.8004 55.3216L85.8831 53.3583Z" fill="#02931C"/>
<path d="M75.9075 59.7938C75.9075 59.7938 67.5769 54.6671 67.0286 50.7404C66.4806 48.559 65.4941 48.3407 65.4941 48.3407L64.0692 44.0867L63.7402 45.1775L65.6037 49.3222C65.6037 49.3222 69.9883 58.2668 74.044 60.3394C75.9075 61.3209 75.7978 59.2485 75.7978 59.2485" fill="#02931C"/>
<path d="M88.1846 39.5059C88.1846 39.5059 84.5673 46.2687 89.8288 49.6501C91.254 48.1231 93.3365 41.7964 88.1846 39.5059Z" fill="#02931C"/>
<path d="M89.9792 30.9705C89.9792 30.9705 87.9768 39.1036 93.899 41.7443C94.9468 39.7852 95.5458 32.4391 89.9792 30.9705Z" fill="#02931C"/>
<path d="M101.682 31.0078C101.682 31.0078 93.0479 34.9463 94.8519 42.0112C97.328 41.5601 104.279 36.938 101.682 31.0078Z" fill="#02931C"/>
<path d="M100.7 41.8235C100.7 41.8235 91.2241 42.4743 90.4043 49.7177C92.8811 50.1659 101.024 48.2841 100.7 41.8235Z" fill="#02931C"/>
<path d="M101.398 19.8516C101.398 19.8516 93.6934 25.3799 96.8385 31.9632C99.1802 31.0434 105.1 25.1688 101.398 19.8516Z" fill="#02931C"/>
<path d="M88.1191 23.0169C88.1191 23.0169 89.0478 32.4235 96.3481 33.0283C96.726 30.5515 94.5992 22.5062 88.1191 23.0169Z" fill="#02931C"/>
<path d="M90.1742 13.5034C90.1742 13.5034 88.8855 22.868 95.8455 25.1407C96.7906 22.8189 96.5966 14.5018 90.1742 13.5034Z" fill="#02931C"/>
<path d="M63.3032 24.1877C63.3032 24.1877 65.7067 32.1899 72.1409 31.4866C72.0482 29.2747 68.8368 22.6547 63.3032 24.1877Z" fill="#02931C"/>
<path d="M73.585 26.0723C73.585 26.0723 70.6243 32.4712 76.1584 34.9469C77.4302 33.4398 78.9091 27.587 73.585 26.0723Z" fill="#02931C"/>
<path d="M66.9946 33.6096C66.9946 33.6096 71.7288 38.8472 76.2032 34.7694C75.3155 33.0105 70.499 29.3435 66.9946 33.6096Z" fill="#02931C"/>
<path d="M79.3086 32.4155C79.3086 32.4155 74.209 37.9502 79.0152 42.2571C80.7997 41.1398 84.2165 35.6786 79.3086 32.4155Z" fill="#02931C"/>
<path d="M70.1523 37.9285C70.1523 37.9285 73.2426 44.7793 79.1192 42.0907C78.7939 40.0178 75.1058 34.7343 70.1523 37.9285Z" fill="#02931C"/>
<path d="M82.4483 39.939C82.4483 39.939 76.5837 44.6643 80.6986 49.6296C82.629 48.7865 86.8185 43.8872 82.4483 39.939Z" fill="#02931C"/>
<path d="M72.5742 44.0471C72.5742 44.0471 74.6148 51.2766 80.8256 49.4807C80.8112 47.3827 77.9472 41.6154 72.5742 44.0471Z" fill="#02931C"/>
<path d="M49.71 35.7614C49.71 35.7614 52.9384 41.258 57.5768 39.5836C57.1081 37.9621 53.5311 33.634 49.71 35.7614Z" fill="#02931C"/>
<path d="M57.6677 35.314C57.6677 35.314 56.6327 40.5841 61.1797 41.4263C61.8492 40.0818 61.8852 35.4817 57.6677 35.314Z" fill="#02931C"/>
<path d="M54.1494 42.0781C54.1494 42.0781 58.6038 45.1092 61.18 41.287C60.2042 40.1431 55.973 38.29 54.1494 42.0781Z" fill="#02931C"/>
<path d="M63.055 38.9873C63.055 38.9873 60.2794 44.0008 64.6189 46.3298C65.7383 45.1823 67.2808 40.5249 63.055 38.9873Z" fill="#02931C"/>
<path d="M57.2705 44.7116C57.2705 44.7116 60.7993 49.2321 64.6655 46.1875C64.0493 44.7104 60.3615 41.458 57.2705 44.7116Z" fill="#02931C"/>
<path d="M66.7417 43.9973C66.7417 43.9973 63.2528 48.5485 67.1996 51.4889C68.4768 50.5184 70.6931 46.1386 66.7417 43.9973Z" fill="#02931C"/>
<path d="M60.1714 48.8097C60.1714 48.8097 62.9913 53.7989 67.2666 51.3554C66.8764 49.804 63.711 46.0455 60.1714 48.8097Z" fill="#02931C"/>
<path d="M27.1299 0.0188359C27.1299 0.0188359 34.4739 -0.417354 37.5433 2.85496C40.6124 6.12728 40.6124 8.63607 39.8451 12.781C36.8857 10.7084 34.7401 9.8842 34.0557 6.56475C33.597 4.33924 33.5111 3.91124 32.9394 2.52763C32.6105 3.29115 33.1587 10.7084 37.5433 13.3266C34.0356 11.6902 31.9528 8.52696 31.7338 6.23639C31.5145 3.94582 29.7606 0.564137 27.1299 0.0188359Z" fill="#02931C"/>
<path d="M26.5036 23.9548C26.5036 23.9548 26.2984 18.093 28.993 15.712C31.6879 13.3308 33.7069 13.3807 37.0277 14.0746C35.3009 16.3923 34.5948 18.0858 31.9095 18.5653C30.1093 18.8865 29.7631 18.9464 28.6381 19.3747C29.2463 19.6518 35.227 19.3624 37.421 15.92C36.0344 18.6831 33.4471 20.2801 31.5991 20.4092C29.7513 20.5385 26.9949 21.8689 26.5036 23.9548Z" fill="#02931C"/>
<path d="M38.0366 37.5274C38.0366 19.1918 52.9737 4.32809 71.3991 4.32809C78.6788 4.32809 85.409 6.65529 90.8934 10.5933C84.956 5.17281 77.0418 1.86182 68.3488 1.86182C49.9231 1.86182 34.9863 16.7256 34.9863 35.0611C34.9863 46.1523 40.4571 55.966 48.8542 61.995C42.2063 55.9263 38.0366 47.2125 38.0366 37.5274Z" fill="#DB9045"/>
</g>
<defs>
<clipPath id="clip0_425_2047">
<rect width="150" height="90" fill="white"/>
</clipPath>
</defs>
</svg>
