<svg width="13" height="15" viewBox="0 0 13 15" fill="none" xmlns="http://www.w3.org/2000/svg">
<path d="M9.75236 0.727451C7.46545 0.29072 5.09058 0.29072 2.80366 0.727451C1.79215 0.945816 0.516754 2.16866 0.296859 3.12947C-0.0989529 5.00741 -0.0989529 6.92903 0.296859 8.80697C0.560733 9.76778 1.83612 10.9906 2.80366 11.209C2.84764 11.209 2.89162 11.2527 2.89162 11.2963V14.0477C2.89162 14.1788 3.06754 14.2661 3.1555 14.1351L4.47487 12.7812C4.47487 12.7812 5.53037 11.6894 5.70628 11.5147C5.70628 11.5147 5.75026 11.471 5.79424 11.471C7.11361 11.5147 8.47696 11.3837 9.79634 11.1653C10.8079 10.947 12.0832 9.72411 12.3031 8.7633C12.699 6.88536 12.699 4.96374 12.3031 3.0858C12.0393 2.16866 10.7639 0.945816 9.75236 0.727451ZM9.79634 8.93799C9.57644 9.37473 9.31257 9.72411 8.87278 9.94248C8.74084 9.98615 8.6089 10.0298 8.47696 10.0735C8.30105 10.0298 8.16911 9.98615 8.03717 9.94248C6.62984 9.37472 5.31047 8.58861 4.25497 7.45311C3.68325 6.79801 3.19948 6.05557 2.80366 5.26945C2.62775 4.8764 2.45183 4.52701 2.3199 4.13395C2.18796 3.78457 2.40785 3.43518 2.62775 3.17314C2.84764 2.91111 3.11152 2.73641 3.41937 2.60539C3.63927 2.47437 3.85916 2.56172 4.03508 2.73641C4.38691 3.17314 4.73874 3.60987 5.00262 4.09028C5.17853 4.39599 5.13455 4.74538 4.8267 4.96374C4.73874 5.00741 4.69476 5.05109 4.60681 5.13843C4.56283 5.18211 4.47487 5.22578 4.43089 5.31313C4.34293 5.44414 4.34293 5.57516 4.38691 5.70618C4.73874 6.71067 5.39843 7.49678 6.40995 7.93351C6.58586 8.02086 6.7178 8.06453 6.9377 8.06453C7.24555 8.02086 7.37749 7.67147 7.59738 7.49678C7.81728 7.32209 8.08115 7.32209 8.34503 7.45311C8.56492 7.58413 8.78482 7.75882 9.04869 7.93351C9.26859 8.1082 9.48848 8.23922 9.70838 8.41392C9.84031 8.50126 9.88429 8.71963 9.79634 8.93799ZM7.94921 5.66251C7.86126 5.66251 7.90523 5.66251 7.94921 5.66251C7.7733 5.66251 7.72932 5.57517 7.68534 5.44415C7.68534 5.3568 7.68534 5.22578 7.64136 5.13843C7.59738 4.96374 7.50943 4.78905 7.33351 4.65803C7.24555 4.61436 7.15759 4.57068 7.06963 4.52701C6.93769 4.48334 6.84974 4.48334 6.7178 4.48334C6.58586 4.43966 6.54188 4.35232 6.54188 4.2213C6.54188 4.13395 6.67382 4.04661 6.76178 4.04661C7.46545 4.09028 7.99319 4.48334 8.08115 5.31313C8.08115 5.3568 8.08115 5.44415 8.08115 5.48782C8.08115 5.57516 8.03717 5.66251 7.94921 5.66251ZM7.50942 3.74089C7.28953 3.65355 7.06963 3.5662 6.80576 3.52253C6.7178 3.52253 6.58586 3.47886 6.49791 3.47886C6.36597 3.47886 6.27801 3.39151 6.32199 3.26049C6.32199 3.12947 6.40995 3.04212 6.54188 3.0858C6.98168 3.12947 7.37749 3.21682 7.7733 3.39151C8.56492 3.78457 9.00471 4.43966 9.13665 5.31313C9.13665 5.3568 9.13665 5.40047 9.13665 5.44415C9.13665 5.53149 9.13665 5.61884 9.13665 5.74986C9.13665 5.79353 9.13665 5.8372 9.13665 5.88088C9.09267 6.05557 8.78482 6.09924 8.74084 5.88088C8.74084 5.8372 8.69686 5.74986 8.69686 5.70618C8.69686 5.31313 8.6089 4.92007 8.43299 4.57068C8.16911 4.17763 7.86126 3.91559 7.50942 3.74089ZM9.88429 6.36128C9.75236 6.36128 9.6644 6.23026 9.6644 6.09924C9.6644 5.8372 9.62042 5.57516 9.57644 5.31313C9.40052 3.91559 8.25707 2.78009 6.89372 2.56172C6.67382 2.51805 6.45393 2.51805 6.27801 2.47437C6.14607 2.47437 5.97016 2.47437 5.92618 2.29968C5.8822 2.16866 6.01414 2.03764 6.14607 2.03764C6.19005 2.03764 6.23403 2.03764 6.23403 2.03764C8.03717 2.08132 6.32199 2.03764 6.23403 2.03764C8.08115 2.08132 9.62042 3.30416 9.92827 5.13843C9.97225 5.44415 10.0162 5.74986 10.0162 6.09924C10.1042 6.23026 10.0162 6.36128 9.88429 6.36128Z" fill="#FCFCFC"/>
</svg>
