<svg width="13" height="13" viewBox="0 0 13 13" fill="none" xmlns="http://www.w3.org/2000/svg">
<path d="M10.7561 2.2374C9.57073 1.05615 7.99024 0.399902 6.32195 0.399902C2.85366 0.399902 0.0439018 3.1999 0.0439018 6.65615C0.0439018 7.7499 0.351219 8.84365 0.878049 9.7624L0 12.9999L3.33659 12.1249C4.25854 12.6062 5.26829 12.8687 6.32195 12.8687C9.79024 12.8687 12.6 10.0687 12.6 6.6124C12.5561 4.99365 11.9415 3.41865 10.7561 2.2374ZM9.35122 8.8874C9.21951 9.2374 8.60488 9.5874 8.29756 9.63115C8.03415 9.6749 7.68293 9.6749 7.33171 9.5874C7.1122 9.4999 6.80488 9.4124 6.45366 9.2374C4.87317 8.58115 3.86342 7.00615 3.77561 6.8749C3.68781 6.7874 3.11707 6.04365 3.11707 5.25615C3.11707 4.46865 3.51219 4.11865 3.6439 3.94365C3.77561 3.76865 3.95122 3.76865 4.08293 3.76865C4.17073 3.76865 4.30244 3.76865 4.39024 3.76865C4.47805 3.76865 4.60976 3.7249 4.74146 4.03115C4.87317 4.3374 5.18049 5.1249 5.22439 5.16865C5.26829 5.25615 5.26829 5.34365 5.22439 5.43115C5.18049 5.51865 5.13658 5.60615 5.04878 5.69365C4.96097 5.78115 4.87317 5.9124 4.82927 5.95615C4.74146 6.04365 4.65366 6.13115 4.74146 6.2624C4.82927 6.4374 5.13659 6.91865 5.61951 7.35615C6.23415 7.88115 6.71707 8.05615 6.89268 8.14365C7.06829 8.23115 7.1561 8.1874 7.2439 8.0999C7.33171 8.0124 7.63903 7.6624 7.72683 7.4874C7.81464 7.3124 7.94634 7.35615 8.07805 7.3999C8.20975 7.44365 9 7.8374 9.13171 7.9249C9.30732 8.0124 9.39512 8.05615 9.43902 8.0999C9.48293 8.23115 9.48293 8.5374 9.35122 8.8874Z" fill="#FCFCFC"/>
</svg>
